<svg width="640" height="640" viewBox="0 0 640 640" fill="none" xmlns="http://www.w3.org/2000/svg">
<path d="M362.409 321.498L277.699 318.601C288.588 226.076 361.009 177.542 454.998 178.11C561.594 177.542 640 264.277 640 380.499C640 511.625 560.452 592 452.709 592C348.977 592 286.76 533.328 277.59 458.967C319.175 441.895 332.78 423.445 358.183 379.147C355.654 409.861 352.726 418.523 358.183 450.098C366.206 492.671 404.568 517.643 450.416 518.211C512.884 517.643 554.608 467.348 554.035 380.499C554.608 310.824 515.746 251.331 452.705 251.899C405.711 251.331 368.713 276.654 362.409 321.498Z" fill="url(#paint0_linear_828_30075)"/>
<path d="M277.699 318.601L362.409 321.498C351.52 414.024 278.991 463.458 185.002 462.89C78.4056 463.458 0 376.723 0 260.501C0 129.375 79.5484 49 187.291 49C291.023 49 353.24 107.672 362.41 182.033C320.825 199.105 307.22 217.555 281.817 261.853C284.346 231.139 287.274 222.478 281.817 190.902C273.794 148.329 235.432 123.357 189.584 122.789C127.116 123.357 85.3921 173.652 85.9652 260.501C85.3921 330.176 124.362 388.768 187.403 388.201C234.397 388.768 271.395 363.445 277.699 318.601Z" fill="url(#paint1_linear_828_30075)"/>
<defs>
<linearGradient id="paint0_linear_828_30075" x1="320" y1="49" x2="320" y2="592" gradientUnits="userSpaceOnUse">
<stop stop-color="#8020FA"/>
<stop offset="1" stop-color="#562CFA"/>
</linearGradient>
<linearGradient id="paint1_linear_828_30075" x1="320" y1="49" x2="320" y2="592" gradientUnits="userSpaceOnUse">
<stop stop-color="#8020FA"/>
<stop offset="1" stop-color="#562CFA"/>
</linearGradient>
</defs>
</svg>
